<?xml version="1.0" standalone="no"?>
<!DOCTYPE svg PUBLIC "-//W3C//DTD SVG 20010904//EN"
 "http://www.w3.org/TR/2001/REC-SVG-20010904/DTD/svg10.dtd">
<svg version="1.0" xmlns="http://www.w3.org/2000/svg"
 width="2000.000000pt" height="2000.000000pt" viewBox="0 0 2000.000000 2000.000000"
 preserveAspectRatio="xMidYMid meet">
<metadata>
Created by potrace 1.11, written by Peter Selinger 2001-2013
</metadata>
<g transform="translate(0.000000,2000.000000) scale(0.100000,-0.100000)"
fill="#000000" stroke="none">
<path d="M9930 19673 c-30 -20 -106 -79 -169 -132 -62 -53 -165 -140 -230
-195 -161 -137 -628 -486 -856 -640 -104 -71 -215 -148 -245 -171 -30 -24 -73
-52 -96 -63 -22 -11 -128 -73 -235 -137 -106 -64 -221 -131 -254 -147 -33 -17
-73 -41 -88 -54 -59 -50 -634 -326 -734 -353 -32 -9 -43 -18 -51 -40 -10 -29
-54 -50 -107 -51 -11 -1 -69 -21 -130 -46 -197 -82 -314 -124 -342 -124 -28 0
-69 -19 -116 -53 -14 -10 -95 -36 -181 -57 -86 -22 -175 -50 -199 -64 -42 -24
-96 -37 -327 -76 -148 -25 -191 -36 -245 -60 -136 -62 -881 -108 -1530 -96
-365 6 -469 13 -810 51 -233 26 -235 27 -333 56 -35 10 -145 33 -245 50 -245
41 -264 46 -327 78 -30 16 -89 36 -130 45 -187 40 -255 58 -298 80 -26 13
-112 42 -192 65 -80 23 -202 66 -271 96 -69 30 -146 57 -170 61 -24 3 -102 32
-174 64 -71 32 -215 95 -320 140 -104 45 -204 91 -221 101 -42 26 -79 24 -98
-3 -23 -32 -21 -134 9 -448 27 -299 40 -471 55 -775 24 -480 58 -874 85 -1010
14 -67 36 -228 90 -655 42 -328 114 -775 190 -1176 63 -331 112 -562 259
-1204 42 -186 86 -334 120 -412 14 -32 30 -88 36 -124 33 -208 406 -1379 495
-1554 13 -25 26 -67 30 -92 4 -26 27 -95 51 -155 25 -59 85 -209 135 -333 91
-229 100 -251 165 -400 354 -820 827 -1744 1252 -2445 280 -463 602 -963 687
-1070 18 -22 84 -116 148 -210 63 -93 144 -207 179 -251 34 -45 126 -166 202
-269 255 -344 844 -1049 1075 -1288 106 -109 107 -110 271 -126 58 -6 152 -19
210 -31 126 -24 188 -25 218 -4 22 15 22 16 -69 109 -147 150 -154 169 -88
240 65 71 82 66 199 -54 109 -111 160 -194 140 -230 -6 -12 -21 -21 -33 -21
-77 0 -56 -94 36 -161 49 -36 83 -37 148 -3 43 21 56 24 81 15 65 -23 248
-209 248 -253 0 -28 -91 -118 -119 -118 -23 0 -65 40 -128 122 -21 27 -41 48
-47 48 -11 0 -1 -511 12 -555 7 -25 14 -31 43 -33 83 -9 338 56 393 99 33 26
34 49 1 49 -33 0 -60 41 -50 77 10 42 54 83 87 83 39 0 98 -31 158 -85 27 -24
60 -50 72 -56 37 -20 129 -12 393 36 513 93 842 134 1330 167 248 16 1514 16
1790 0 702 -42 1109 -95 1753 -228 l183 -38 112 110 c193 191 199 193 271 113
62 -69 60 -86 -16 -151 -128 -110 -141 -130 -95 -147 30 -12 290 -42 297 -35
3 3 5 103 5 222 0 215 0 218 -27 279 -34 75 -34 88 -7 133 62 101 209 203 329
228 171 36 476 70 703 79 l179 6 48 56 c409 475 835 993 1064 1296 295 391
338 449 421 564 44 62 107 149 139 194 133 183 417 625 628 977 487 813 883
1570 1258 2405 10 22 36 85 59 140 23 55 50 120 61 145 10 25 40 99 66 165 25
66 69 174 97 240 93 222 118 288 129 339 6 28 28 92 48 141 120 284 449 1323
480 1517 5 36 21 91 35 122 37 84 79 234 135 480 28 122 59 259 70 306 150
649 289 1417 365 2010 65 511 77 599 90 665 20 99 32 208 50 455 9 118 18 229
20 245 3 17 14 194 25 395 21 389 44 722 61 885 23 235 23 221 0 244 -26 26
-56 27 -101 2 -19 -10 -120 -55 -225 -101 -104 -45 -248 -108 -320 -140 -71
-32 -150 -61 -174 -64 -24 -4 -101 -31 -170 -61 -69 -30 -191 -73 -271 -96
-79 -22 -165 -52 -190 -65 -25 -13 -124 -44 -220 -68 -96 -25 -199 -54 -228
-66 -101 -39 -544 -127 -883 -175 -261 -37 -596 -48 -1214 -42 -642 7 -740 16
-1170 98 -253 49 -470 101 -532 129 -25 11 -121 40 -214 65 -93 24 -182 51
-197 59 -85 44 -509 200 -596 220 -39 9 -53 18 -66 41 -13 23 -33 36 -86 55
-150 56 -649 300 -700 343 -16 13 -54 37 -84 52 -30 15 -147 83 -260 150 -113
67 -221 130 -240 140 -19 9 -60 36 -90 60 -30 23 -134 95 -230 160 -177 120
-569 408 -735 540 -100 80 -185 151 -355 298 -119 103 -224 177 -250 177 -8 0
-40 -16 -70 -37z m290 -639 c185 -145 189 -153 119 -229 -65 -71 -85 -65 -260
82 -92 77 -106 101 -84 146 30 62 75 100 104 89 9 -3 63 -43 121 -88z m-425
-65 c20 -18 43 -45 51 -60 13 -26 13 -32 0 -58 -23 -43 -177 -171 -253 -210
-55 -27 -78 -27 -108 4 -31 30 -33 77 -5 122 42 69 229 233 266 233 7 0 29
-14 49 -31z m888 -295 c22 -25 72 -67 111 -94 78 -53 130 -104 140 -136 8 -27
-31 -86 -66 -98 -43 -15 -94 7 -209 91 -58 43 -120 88 -137 101 -18 12 -32 29
-32 37 0 18 123 145 140 145 7 0 31 -21 53 -46z m-1408 -151 c60 -62 45 -96
-89 -195 -141 -105 -204 -123 -245 -72 -42 53 -16 113 85 203 125 111 187 127
249 64z m2028 -287 c156 -99 193 -158 147 -233 -40 -66 -80 -55 -265 72 -82
56 -125 93 -125 104 0 10 23 40 51 66 45 42 54 47 86 42 19 -3 67 -26 106 -51z
m-2593 -98 c53 -73 41 -99 -87 -184 -137 -90 -211 -126 -234 -114 -23 13 -59
81 -59 113 0 39 87 108 245 194 80 44 98 42 135 -9z m484 -91 c32 -42 124
-237 159 -337 69 -196 115 -472 104 -620 -4 -43 -19 -124 -33 -180 -33 -120
-29 -144 37 -259 52 -91 81 -167 74 -193 -9 -26 20 -68 46 -68 39 0 153 92
314 254 275 276 385 482 465 870 32 158 44 193 72 210 23 14 61 -14 105 -78
83 -121 101 -350 52 -644 -22 -131 -51 -220 -118 -364 -27 -57 -56 -126 -65
-154 -30 -91 6 -127 99 -99 52 15 97 57 151 141 40 62 92 116 108 111 20 -7
18 -114 -5 -205 -21 -87 -32 -119 -109 -312 -22 -58 -43 -125 -46 -150 -3 -26
11 -176 35 -360 23 -173 41 -321 41 -329 0 -31 123 159 186 287 48 98 70 132
83 132 56 0 58 -214 6 -475 -40 -200 -85 -318 -221 -575 -93 -175 -156 -335
-193 -490 -16 -69 -42 -159 -56 -200 -20 -56 -25 -85 -20 -116 6 -44 43 -94
69 -94 21 0 161 74 331 175 251 148 307 149 241 4 -24 -52 -31 -79 -56 -201
-7 -34 -27 -80 -50 -116 -60 -93 -240 -265 -389 -372 -245 -174 -708 -642
-688 -694 3 -8 41 -25 83 -38 122 -37 118 -23 126 -371 3 -161 7 -302 7 -314
2 -58 82 -71 318 -53 243 18 336 52 573 210 211 140 386 238 565 316 135 58
614 223 785 270 289 79 808 146 1150 147 318 2 448 -32 580 -148 36 -32 81
-65 100 -73 52 -21 193 -44 295 -46 133 -3 180 -36 161 -112 -11 -43 -47 -70
-111 -82 -33 -7 -79 -23 -103 -37 -65 -37 -104 -41 -156 -15 -33 16 -50 32
-65 64 -12 23 -21 50 -21 58 0 26 -11 48 -25 48 -25 0 -50 -43 -60 -108 l-11
-67 -39 -3 c-67 -6 -83 -36 -45 -84 19 -25 19 -25 -3 -45 -30 -28 -64 -44
-194 -92 -141 -51 -161 -52 -202 -6 -41 47 -50 84 -25 102 37 28 161 87 274
129 146 56 170 83 156 177 -14 95 -74 146 -206 174 -73 15 -135 18 -445 18
-422 0 -453 -4 -784 -85 -272 -67 -386 -102 -535 -165 -58 -24 -125 -49 -149
-55 -63 -17 -246 -100 -502 -227 -295 -147 -502 -265 -554 -314 -61 -59 -65
-86 -55 -349 18 -487 8 -557 -85 -609 -49 -27 -209 -70 -260 -71 -38 0 -71 23
-71 50 0 10 -12 25 -26 35 -25 16 -29 16 -63 1 -60 -28 -119 -89 -127 -133 -4
-21 -11 -46 -16 -56 -26 -50 -237 -147 -320 -147 -18 0 -42 10 -60 25 -39 33
-83 32 -162 -4 -63 -28 -96 -60 -96 -92 0 -36 -54 -80 -154 -129 -55 -27 -120
-52 -143 -56 -41 -6 -45 -4 -80 33 -56 58 -79 69 -178 82 -50 6 -119 19 -155
28 -71 18 -188 72 -209 97 -8 9 -18 16 -23 16 -5 0 -38 18 -74 39 -99 60 -169
72 -393 69 -171 -3 -190 -1 -231 18 -88 41 -113 95 -113 244 1 58 6 119 12
135 7 17 48 64 92 105 78 74 80 77 69 105 -13 34 -26 45 -55 45 -32 0 -149 60
-289 149 -136 86 -199 111 -277 111 -156 0 -626 -98 -765 -159 -22 -10 -51
-33 -64 -51 l-23 -32 12 -177 c6 -97 23 -288 36 -426 65 -652 101 -1101 91
-1140 -7 -26 -10 -27 -49 -22 -23 3 -47 13 -54 23 -25 34 -43 159 -68 455 -50
602 -92 892 -139 964 -19 30 -30 26 -52 -18 -14 -27 -16 -62 -11 -266 4 -191
11 -274 35 -436 53 -353 76 -619 62 -734 -9 -70 -19 -86 -47 -77 -51 16 -73
128 -113 581 -33 370 -36 404 -51 452 -19 59 -83 82 -129 45 -19 -15 -20 -21
-10 -47 19 -49 47 -262 85 -633 36 -356 51 -457 74 -501 11 -21 18 -23 55 -18
72 10 136 -47 136 -121 0 -48 -46 -76 -223 -137 -137 -46 -152 -42 -198 51
-17 35 -29 70 -26 77 6 16 51 27 107 27 69 0 69 4 17 268 -25 131 -71 383
-102 562 -30 179 -62 352 -71 385 -27 100 -28 104 -8 126 10 11 62 43 116 71
69 35 100 56 103 71 3 12 9 88 13 169 9 175 14 183 130 226 125 46 135 65 107
192 -21 97 -19 137 8 154 12 7 78 26 147 41 69 15 157 41 195 57 49 22 131 42
277 69 114 21 216 43 228 49 31 17 21 40 -34 80 -220 157 -401 299 -580 453
-238 205 -365 281 -531 321 -38 9 -82 25 -97 36 -45 33 -74 40 -212 49 -261
18 -452 105 -660 300 -119 111 -156 130 -283 140 -114 9 -143 21 -143 58 0 74
322 287 527 348 135 41 171 55 201 79 54 45 167 40 345 -15 141 -43 246 -91
472 -215 184 -101 347 -182 435 -214 19 -8 40 -17 46 -22 22 -17 212 -50 284
-49 41 0 106 9 143 19 58 16 79 28 140 84 82 74 137 160 185 288 62 168 77
272 48 329 -30 57 -138 117 -265 148 -69 17 -216 21 -541 15 -183 -4 -236 4
-354 50 -103 41 -200 106 -316 213 -119 109 -248 196 -332 224 -77 26 -112 54
-99 79 29 55 126 98 263 117 150 21 189 30 423 98 299 87 333 85 680 -26 114
-36 213 -82 335 -156 55 -34 93 -51 110 -49 25 3 25 4 27 103 3 196 13 351 24
390 6 21 21 53 34 70 12 16 37 77 54 135 25 80 39 111 61 130 16 14 54 72 85
130 76 141 189 296 395 545 96 116 241 307 432 570 151 207 179 252 276 445
121 240 207 443 222 522 6 29 19 64 30 78 11 14 25 36 30 49 12 28 56 232 65
306 11 80 36 188 51 218 19 36 37 34 68 -6z m2711 -181 c120 -59 195 -109 195
-129 0 -7 -16 -38 -36 -70 -57 -91 -82 -88 -258 28 -138 91 -156 125 -105 197
31 44 74 38 204 -26z m-3782 -77 c38 -41 37 -87 -3 -126 -54 -52 -278 -153
-312 -140 -23 8 -67 69 -78 106 -8 30 -7 33 46 66 70 45 189 105 239 121 50
16 73 10 108 -27z m4394 -240 c144 -71 178 -103 168 -158 -3 -20 -17 -46 -32
-60 -43 -38 -106 -25 -255 49 -159 79 -158 78 -131 133 11 23 33 57 48 76 35
41 43 40 202 -40z m-5005 -60 c11 -14 22 -44 25 -66 9 -66 -25 -94 -182 -148
-145 -50 -195 -55 -225 -25 -31 31 -27 90 8 122 67 64 263 151 326 145 18 -1
37 -12 48 -28z m-6722 -78 c35 -25 42 -66 38 -232 -4 -180 -6 -184 -103 -184
-100 0 -99 -1 -103 225 -3 176 -2 190 16 208 17 17 26 19 73 10 30 -5 65 -17
79 -27z m18569 30 c33 -21 34 -203 1 -244 -15 -19 -33 -22 -154 -31 -170 -12
-190 -5 -232 79 -36 74 -28 88 54 97 59 6 114 28 127 49 9 14 48 29 115 44 70
16 72 16 89 6z m-6308 -117 c75 -22 186 -82 231 -125 47 -45 50 -79 9 -120
-41 -40 -83 -38 -190 10 -47 21 -97 42 -111 46 -67 21 -96 67 -87 137 9 69 46
82 148 52z m-11749 -80 c175 -55 192 -65 184 -105 -10 -52 -48 -128 -66 -134
-16 -5 -285 82 -342 111 -33 17 -42 43 -33 95 9 53 35 79 80 79 19 0 99 -21
177 -46z m5556 4 c43 -46 55 -123 25 -150 -50 -43 -200 -87 -314 -91 -66 -2
-72 0 -95 26 -55 64 -19 113 112 152 110 33 193 65 200 76 10 17 51 9 72 -13z
m11862 -76 c14 -11 31 -36 39 -57 14 -36 14 -39 -7 -56 -30 -24 -181 -58 -288
-65 -104 -6 -130 3 -157 58 -36 73 8 100 233 142 51 9 154 -3 180 -22z m-4948
-101 c86 -20 168 -45 182 -55 49 -32 27 -101 -42 -127 -37 -15 -164 -14 -242
2 -92 18 -110 39 -110 127 0 69 10 92 40 92 8 0 85 -18 172 -39z m-11789 -10
c140 -36 178 -69 162 -140 -10 -48 -34 -55 -159 -48 -164 9 -248 36 -267 85
-13 33 -2 97 19 119 21 20 131 13 245 -16z m4225 -3 c33 -40 19 -156 -21 -183
-29 -18 -263 -86 -304 -88 -62 -2 -101 70 -70 129 33 63 119 113 197 114 25 1
74 9 110 19 36 10 68 19 71 20 4 0 11 -5 17 -11z m11848 -13 c13 -20 15 -39
11 -83 -8 -72 -31 -95 -125 -116 -37 -8 -97 -24 -133 -36 -120 -37 -165 -19
-163 66 2 82 90 143 229 158 33 4 80 13 105 21 60 18 57 19 76 -10z m1257
-114 c17 -17 27 -88 27 -201 0 -191 -17 -225 -103 -217 -55 5 -84 27 -92 71
-8 42 20 265 39 310 8 20 25 41 38 46 25 10 77 5 91 -9z m-16682 -7 c140 -26
195 -71 172 -141 -14 -41 -59 -54 -163 -47 -169 10 -239 33 -260 83 -15 38 -6
97 18 110 26 15 140 13 233 -5z m11774 -4 c64 -11 134 -20 155 -20 22 0 47 -8
61 -19 21 -17 24 -28 24 -90 0 -104 1 -104 -178 -75 -169 28 -219 48 -236 95
-12 35 -15 112 -4 122 11 11 55 8 178 -13z m-8871 -34 c18 -8 36 -23 38 -34 8
-30 -22 -83 -61 -110 -47 -31 -212 -82 -286 -89 -76 -7 -87 4 -88 87 0 53 3
64 29 91 27 28 90 53 159 62 72 10 178 6 209 -7z m11855 -10 c28 -26 28 -77
-1 -111 -20 -21 -45 -30 -164 -54 -78 -16 -150 -34 -162 -40 -30 -16 -69 -14
-76 5 -9 23 -7 177 3 192 15 24 66 31 222 29 139 -2 159 -4 178 -21z m-13977
-66 c21 -6 50 -21 65 -34 23 -20 27 -31 26 -66 -1 -25 -10 -51 -20 -62 -17
-19 -26 -20 -148 -15 -233 11 -294 32 -280 95 15 71 95 104 230 97 50 -2 107
-9 127 -15z m1436 -12 c17 -17 15 -93 -3 -127 -8 -16 -29 -34 -47 -41 -51 -18
-280 -35 -319 -24 -32 9 -34 12 -37 59 -3 59 13 95 52 113 57 28 331 43 354
20z m10471 -5 c20 -17 20 -20 6 -67 -8 -27 -15 -59 -15 -70 -1 -48 -7 -49
-156 -36 -175 15 -234 26 -256 48 -16 16 -16 20 0 74 9 32 24 59 32 62 8 2 94
4 191 5 155 1 179 -1 198 -16z m1351 4 c56 -28 48 -110 -15 -140 -33 -16 -151
-39 -267 -53 -78 -9 -103 7 -112 73 -8 62 4 105 35 120 33 18 325 17 359 0z
m-12808 -7 c20 -6 98 -14 173 -19 153 -9 163 -14 172 -77 4 -30 0 -45 -15 -64
-20 -25 -21 -25 -201 -25 -216 0 -216 0 -216 98 0 99 9 108 87 87z m12113 -31
c71 -19 97 -80 56 -130 -19 -24 -22 -24 -200 -24 -213 0 -214 0 -214 91 0 85
7 87 178 80 77 -3 158 -11 180 -17z m-15176 -13 c37 -20 48 -47 76 -202 33
-175 33 -192 -2 -201 -36 -10 -130 -10 -165 0 -38 10 -43 35 -43 223 0 122 3
165 14 177 17 21 82 22 120 3z m18465 -466 c32 -12 33 -41 10 -210 -27 -203
-24 -193 -67 -207 -47 -16 -94 -7 -110 21 -13 24 -17 313 -4 359 4 15 18 32
30 37 30 12 110 12 141 0z m-18371 -217 c14 -27 40 -152 57 -276 5 -34 5 -69
0 -83 -9 -22 -15 -24 -83 -24 -109 0 -111 3 -115 146 -5 155 3 200 38 236 39
38 84 39 103 1z m18286 -452 c26 -26 35 -105 29 -252 -6 -151 -12 -159 -109
-159 -37 0 -74 3 -83 6 -20 8 -20 41 -1 169 8 55 18 126 21 158 7 73 28 97 84
97 26 0 47 -7 59 -19z m-18244 -219 c53 -32 115 -178 115 -270 0 -67 -55 -122
-123 -122 -68 0 -129 130 -131 278 -1 80 0 85 27 108 34 29 71 31 112 6z
m18138 -442 c32 -25 51 -108 42 -177 -25 -177 -54 -233 -123 -233 -76 0 -93
42 -81 196 15 188 82 277 162 214z m-18003 -220 c11 -11 20 -23 20 -27 1 -59
26 -198 45 -248 21 -57 22 -66 9 -79 -16 -17 -68 -29 -128 -30 -58 -1 -72 25
-101 184 -39 214 -38 219 73 220 49 0 66 -4 82 -20z m17886 -441 c48 -23 59
-61 46 -151 -15 -101 -49 -169 -110 -213 -78 -58 -105 -47 -161 62 -24 49 -19
74 24 113 35 32 64 95 65 138 0 58 16 75 64 70 23 -3 55 -11 72 -19z m-17748
-231 c7 -15 17 -73 22 -129 6 -78 14 -113 34 -151 14 -28 24 -54 21 -59 -7
-10 -59 -24 -121 -33 -62 -9 -79 10 -110 129 -32 122 -36 195 -10 223 50 56
141 67 164 20z m17264 -155 c33 -36 68 -94 68 -114 0 -11 -50 -32 -182 -77
-101 -34 -193 -62 -205 -62 -28 0 -41 24 -49 94 -5 40 -3 60 7 72 20 24 100
62 191 88 110 33 138 33 170 -1z m-623 -228 c55 -63 38 -147 -37 -178 -60 -24
-268 -87 -290 -87 -35 0 -62 46 -62 104 0 65 18 91 67 100 21 3 83 26 138 51
124 55 143 56 184 10z m-642 -237 c18 -17 23 -32 23 -69 0 -40 -5 -53 -31 -78
-64 -64 -242 -130 -314 -117 -89 17 -114 176 -28 176 15 0 79 22 142 49 171
72 173 72 208 39z m-15872 -28 c9 -10 25 -57 35 -103 9 -46 27 -116 40 -154
29 -90 25 -102 -37 -105 -72 -3 -135 2 -155 13 -26 14 -36 69 -40 209 l-3 125
35 17 c47 24 102 23 125 -2z m15245 -251 c16 -58 -4 -116 -49 -146 -77 -52
-284 -98 -328 -74 -19 9 -53 85 -53 116 0 16 196 103 330 145 67 22 85 14 100
-41z m-690 -219 c27 -15 72 -95 68 -122 -3 -25 -26 -38 -178 -99 -201 -79
-242 -80 -248 -5 -4 52 30 102 104 151 108 72 206 101 254 75z m860 -131 c25
-5 113 -30 195 -56 193 -59 222 -60 382 -4 185 64 297 66 325 7 17 -38 -10
-70 -79 -95 -145 -52 -159 -72 -120 -170 57 -140 207 -346 281 -386 l37 -20
58 63 c32 34 63 62 69 62 25 0 45 -53 50 -128 3 -69 1 -81 -20 -112 -31 -46
-61 -60 -130 -60 -119 0 -220 63 -329 206 -80 104 -117 130 -177 122 -83 -12
-257 -120 -288 -180 -25 -48 -14 -118 36 -228 55 -123 62 -169 27 -204 -14
-14 -35 -26 -46 -26 -29 0 -116 102 -156 183 -70 141 -67 284 6 399 45 70 101
115 240 192 137 75 165 97 156 120 -10 25 -54 19 -142 -18 -322 -137 -726
-317 -757 -337 -52 -33 -65 -68 -50 -136 16 -79 65 -158 151 -244 80 -79 129
-109 179 -109 36 0 49 14 60 66 12 58 35 56 71 -8 17 -29 36 -76 42 -105 16
-68 0 -94 -76 -122 -84 -32 -150 -36 -242 -16 -104 22 -132 16 -346 -75 -143
-61 -179 -73 -254 -80 -49 -6 -91 -10 -94 -10 -4 0 -41 -27 -84 -60 -158 -122
-308 -165 -443 -125 -67 20 -110 57 -137 120 -32 72 -53 88 -107 80 -59 -8
-126 26 -151 77 -31 63 1 92 153 137 135 41 270 127 257 165 -8 23 -46 15
-147 -32 -58 -27 -193 -82 -300 -122 -199 -74 -289 -114 -302 -134 -11 -17 -1
-42 58 -142 54 -93 199 -286 252 -337 l30 -29 69 81 c37 45 74 81 81 81 7 0
23 -24 36 -53 29 -67 64 -100 136 -128 69 -28 98 -50 133 -101 39 -59 39 -146
-1 -209 -132 -207 -639 -312 -890 -185 -58 29 -75 52 -61 79 18 32 61 40 269
48 224 8 318 25 419 76 108 55 120 118 23 118 -39 -1 -70 -11 -145 -49 -104
-52 -110 -52 -158 1 -14 15 -61 80 -105 143 -89 130 -154 200 -184 200 -32 0
-113 -21 -129 -34 -11 -8 -12 -34 -7 -126 4 -68 2 -129 -4 -149 -24 -84 -116
-130 -272 -139 -85 -4 -102 -2 -142 18 -57 27 -123 101 -132 147 -11 57 11
102 106 223 93 119 119 172 97 198 -55 67 -637 -178 -637 -268 0 -8 15 -47 34
-85 71 -148 240 -325 311 -325 33 0 64 28 76 70 10 32 17 40 35 40 27 0 40
-20 55 -88 15 -74 -1 -121 -57 -171 -60 -53 -134 -71 -202 -51 -26 8 -67 15
-93 15 -40 0 -54 -7 -136 -67 -106 -80 -145 -98 -211 -98 -51 0 -158 32 -231
69 -97 50 -179 153 -206 260 -23 89 -10 155 48 233 11 15 19 30 16 32 -7 7
-187 -66 -305 -124 -110 -53 -164 -102 -164 -147 0 -35 49 -120 125 -218 75
-97 133 -151 188 -175 52 -23 74 -13 82 38 13 78 20 79 80 19 67 -67 79 -153
29 -209 -27 -29 -118 -51 -186 -45 -145 13 -246 106 -382 355 -49 89 -103 176
-120 193 -34 35 -51 35 -132 -1 -65 -29 -92 -23 -153 35 l-46 44 59 60 59 60
-29 42 c-60 86 -64 95 -64 137 0 24 7 56 15 71 41 81 240 201 400 242 96 24
363 38 715 37 357 0 349 -2 930 239 343 143 954 393 2420 989 638 260 699 307
381 291 -129 -6 -196 -23 -290 -73 -35 -19 -73 -34 -84 -34 -44 0 -127 74
-127 113 0 36 141 130 245 163 48 15 213 17 275 3z m-15237 -104 c21 -55 45
-131 53 -169 14 -63 13 -71 -3 -105 -14 -27 -28 -40 -60 -51 -40 -13 -44 -13
-70 6 -35 26 -88 153 -105 251 -15 91 -2 127 56 154 75 34 85 27 129 -86z
m13765 -45 c12 -24 22 -59 22 -77 0 -23 -7 -37 -22 -47 -54 -34 -277 -129
-314 -134 l-42 -4 -21 55 c-30 83 -33 100 -19 119 10 13 144 71 308 131 39 15
65 2 88 -43z m-13611 -522 c25 -28 37 -64 63 -201 24 -130 25 -170 4 -191 -20
-20 -92 -21 -120 -2 -44 31 -104 220 -104 326 0 57 34 90 93 90 32 0 49 -6 64
-22z m11661 -194 c28 -19 82 -112 82 -141 0 -18 -7 -22 -52 -28 -75 -9 -109
-21 -230 -77 -59 -28 -114 -48 -122 -45 -18 7 -36 68 -36 123 0 65 39 94 200
151 108 37 126 39 158 17z m-622 -259 c28 -19 57 -81 49 -104 -7 -25 -36 -43
-108 -69 -32 -12 -103 -43 -157 -68 -60 -27 -107 -43 -118 -39 -28 8 -42 48
-42 115 0 52 3 61 30 83 43 36 219 92 300 96 14 1 35 -6 46 -14z m-10837 -212
c42 -40 136 -332 112 -348 -6 -3 -36 -13 -68 -21 -54 -14 -59 -14 -82 4 -60
45 -148 292 -122 341 31 57 112 69 160 24z m10210 -19 c46 -58 14 -136 -77
-187 -56 -31 -272 -111 -279 -103 -11 11 -53 139 -53 160 0 30 14 40 71 54 25
7 93 32 150 56 123 53 159 57 188 20z m6201 -205 c0 -11 -11 -37 -25 -57 -14
-20 -44 -95 -66 -165 -23 -71 -49 -137 -60 -148 -25 -25 -61 -33 -106 -22 -46
11 -51 24 -52 165 -1 101 0 108 25 138 31 36 63 54 154 86 86 30 130 31 130 3z
m-6861 -30 c46 -43 56 -122 19 -156 -45 -41 -250 -123 -308 -123 -53 0 -110
69 -110 134 0 23 8 27 73 46 144 42 171 53 206 86 43 40 86 44 120 13z m6275
-199 c30 -11 66 -64 66 -97 0 -35 -51 -67 -156 -101 -73 -23 -108 -40 -129
-62 -64 -67 -145 -15 -145 95 0 67 39 98 180 143 100 32 144 37 184 22z
m-15577 -202 c36 -75 93 -258 93 -299 0 -18 -9 -35 -27 -49 -59 -46 -134 8
-207 150 -59 114 -70 157 -50 188 16 24 130 85 149 79 6 -2 24 -33 42 -69z
m14958 -53 c20 -19 25 -34 25 -75 0 -41 -5 -56 -25 -75 -13 -14 -35 -25 -48
-25 -31 0 -145 -40 -227 -79 -79 -38 -86 -33 -99 64 -9 60 -8 72 6 88 36 39
255 124 326 126 10 1 29 -10 42 -24z m867 -125 c81 -23 101 -97 43 -161 -24
-27 -41 -62 -60 -126 -45 -152 -52 -162 -98 -144 -42 17 -107 71 -113 95 -7
27 55 220 88 274 43 71 68 82 140 62z m-1491 -139 c26 -80 21 -109 -20 -134
-52 -31 -257 -97 -300 -97 -36 0 -44 4 -65 38 -36 53 -41 84 -19 104 10 10 68
37 128 61 61 25 136 58 168 75 32 17 64 29 72 26 8 -3 24 -36 36 -73z m-651
-243 c16 -29 30 -62 30 -72 0 -11 -18 -36 -40 -57 -45 -43 -180 -92 -286 -104
-87 -10 -104 1 -104 69 0 48 4 57 30 79 16 14 71 39 123 56 51 17 109 42 128
56 18 13 46 24 61 25 23 0 33 -9 58 -52z m-6953 -20 c17 -22 34 -85 35 -128 1
-66 -18 -80 -135 -95 -37 -5 -59 -16 -89 -43 -33 -30 -48 -36 -81 -36 -34 1
-47 8 -79 42 -42 46 -50 88 -20 115 9 9 74 40 142 70 69 29 139 61 155 70 36
20 59 21 72 5z m-6517 -23 c29 -15 49 -50 129 -229 30 -66 31 -70 14 -89 -22
-24 -110 -67 -139 -67 -11 0 -28 8 -37 18 -32 35 -147 310 -147 352 0 29 130
41 180 15z m8657 -147 c13 -12 23 -31 23 -44 0 -32 -57 -77 -139 -109 -39 -16
-71 -33 -71 -40 0 -11 126 -222 182 -303 73 -106 147 -169 185 -156 10 4 43
31 75 62 31 30 61 51 67 48 19 -12 41 -108 41 -178 0 -105 -30 -124 -192 -116
-58 2 -100 10 -140 27 l-57 24 -48 -25 c-26 -14 -73 -39 -103 -56 -76 -43
-158 -62 -265 -62 -119 0 -146 14 -208 107 -52 80 -77 97 -155 108 -75 10 -97
31 -96 91 1 38 6 52 28 71 15 13 37 23 49 23 57 0 277 121 336 184 24 26 24
26 3 26 -25 0 -148 -44 -357 -128 -186 -74 -314 -115 -350 -110 -16 2 -37 14
-47 29 -19 25 -19 28 -4 57 21 40 103 90 244 148 64 26 162 67 217 92 334 147
433 184 600 228 115 30 152 30 182 2z m4157 -58 c36 -40 52 -79 43 -103 -3 -8
-40 -32 -84 -55 -43 -22 -86 -47 -97 -54 -17 -14 -18 -29 -7 -404 6 -214 18
-555 26 -759 8 -203 19 -494 25 -645 13 -329 24 -506 51 -780 20 -211 37 -560
27 -560 -4 0 -75 41 -160 91 -396 236 -691 391 -963 506 -164 70 -223 92 -363
132 -167 49 -624 133 -639 117 -17 -17 18 -76 310 -511 211 -313 357 -529 548
-810 205 -301 394 -595 413 -640 33 -78 16 -162 -52 -263 -44 -63 -88 -98
-173 -136 -116 -51 -186 -42 -309 39 -149 99 -575 535 -1415 1450 -291 318
-438 469 -489 507 -50 36 -113 38 -179 5 -72 -37 -194 -120 -203 -139 -5 -10
-47 -57 -94 -105 -118 -119 -154 -135 -325 -141 -138 -5 -248 7 -317 35 -22 9
-80 48 -127 86 -103 83 -191 127 -327 160 -55 14 -124 37 -152 51 -64 32 -132
42 -394 58 -162 9 -252 9 -420 0 -292 -17 -326 -23 -543 -98 -391 -135 -535
-191 -700 -275 -367 -185 -1043 -597 -1343 -817 -129 -95 -148 -106 -158 -91
-4 7 -13 78 -20 159 -10 123 -18 161 -43 225 -18 43 -29 86 -26 96 9 27 74 69
107 69 36 0 48 -24 49 -97 1 -87 19 -147 46 -151 38 -6 41 -4 568 377 202 146
295 205 475 299 359 188 752 331 1101 401 205 41 302 51 500 51 200 0 316 -11
549 -51 343 -59 671 -157 828 -247 140 -80 146 -82 245 -89 130 -8 182 8 280
89 76 63 170 124 327 212 107 60 124 77 117 109 -4 13 -45 61 -92 105 -96 93
-118 100 -184 57 -21 -14 -51 -27 -67 -28 -49 -3 -42 30 16 88 27 27 50 57 50
66 0 40 -238 309 -274 309 -19 0 -23 -23 -35 -212 -11 -158 -27 -218 -59 -218
-11 0 -24 6 -30 13 -21 25 -32 146 -42 452 -8 218 -15 329 -26 373 -15 60 -15
64 3 84 38 44 258 130 335 132 66 1 87 -22 102 -111 11 -66 12 -68 40 -66 41
3 163 52 192 77 l25 21 -27 88 c-21 65 -25 93 -18 105 27 43 246 131 326 132
54 0 78 -23 78 -77 0 -55 -32 -79 -155 -114 -131 -37 -145 -44 -145 -70 0 -50
97 -49 146 2 26 27 33 30 69 24 35 -5 44 -2 65 20 46 49 156 60 230 23 54 -28
105 -89 246 -298 57 -86 115 -167 128 -181 l24 -26 528 -6 c660 -9 925 -21
1119 -52 70 -12 68 -21 73 555 4 511 -6 834 -28 881 -8 18 -24 29 -56 37 -44
12 -82 54 -98 108 -10 33 33 76 121 122 98 51 176 66 299 60 107 -6 142 -22
156 -74 11 -39 26 -279 38 -609 11 -301 32 -1737 25 -1743 -8 -9 -191 60 -300
113 -188 90 -426 157 -880 245 -236 46 -370 65 -591 85 -170 16 -214 11 -214
-21 0 -30 40 -82 91 -119 46 -35 63 -39 291 -85 134 -26 280 -58 326 -70 311
-79 707 -228 1090 -409 94 -44 174 -81 177 -81 4 0 37 -15 74 -34 49 -25 75
-32 100 -28 l34 5 -6 221 c-3 121 -17 374 -31 561 -14 187 -32 482 -41 655 -8
173 -22 448 -30 610 -35 704 -38 732 -81 783 -13 15 -24 37 -24 47 0 29 52 83
111 115 73 39 210 95 235 95 13 0 37 -17 58 -40z m2544 15 c66 -55 65 -109 -4
-250 -46 -95 -101 -149 -150 -149 -44 0 -74 31 -74 76 0 36 52 192 87 261 45
91 86 108 141 62z m-9482 -91 c40 -19 74 -58 74 -85 0 -10 -11 -26 -25 -35
-41 -27 -359 -134 -378 -128 -24 7 -47 62 -47 109 0 26 9 45 33 71 61 66 262
106 343 68z m-627 -240 c61 -51 63 -137 3 -149 -83 -17 -152 -39 -231 -75 -49
-22 -96 -40 -105 -40 -23 0 -46 52 -46 104 0 58 30 94 108 129 134 60 224 71
271 31z m-4918 -156 c101 -207 108 -270 34 -305 -29 -14 -35 -14 -69 2 -20 9
-52 39 -71 65 -46 62 -105 189 -112 238 -5 35 -2 41 25 61 31 21 110 60 125
61 4 0 35 -55 68 -122z m11203 -13 c13 -14 37 -50 52 -80 35 -66 29 -76 -56
-86 -43 -5 -78 -17 -118 -41 -76 -47 -134 -68 -183 -68 -38 0 -41 2 -60 46
-33 74 -35 109 -8 128 50 32 293 124 332 125 10 1 29 -10 41 -24z m-6914 -75
c13 -13 20 -33 20 -56 0 -61 -53 -103 -185 -147 -160 -52 -188 -55 -219 -24
-20 20 -26 36 -26 67 0 53 27 79 125 119 149 63 249 77 285 41z m10519 -67
c31 -20 25 -49 -43 -189 -78 -158 -133 -204 -210 -174 -43 16 -52 50 -32 122
23 84 91 212 129 244 28 23 37 25 81 19 28 -3 62 -13 75 -22z m-4225 -136 c83
-64 42 -109 -177 -194 -160 -61 -221 -46 -222 58 0 66 13 76 165 130 133 46
179 47 234 6z m-4440 -10 c31 -31 60 -110 52 -142 -7 -26 -21 -35 -91 -54 -67
-18 -105 -47 -105 -79 0 -32 170 -316 224 -374 37 -40 102 -64 139 -52 12 4
39 22 60 40 20 19 42 34 48 34 23 0 67 -57 73 -97 18 -101 -49 -154 -195 -154
-67 0 -90 4 -134 26 -94 45 -187 164 -301 384 -21 40 -53 89 -71 108 -30 33
-35 34 -75 28 -65 -11 -143 -43 -173 -71 -23 -21 -26 -30 -20 -62 15 -84 121
-266 213 -364 38 -41 50 -48 82 -48 21 0 48 8 61 19 32 25 85 51 102 51 25 0
39 -55 35 -134 -3 -62 -7 -79 -28 -101 -54 -58 -122 -55 -273 11 -43 19 -88
34 -101 34 -13 0 -51 -23 -87 -51 -160 -129 -401 -194 -515 -138 -50 24 -174
136 -203 183 -43 69 -22 95 106 127 131 33 159 89 71 146 -38 25 -50 28 -122
27 -184 -3 -466 -140 -466 -225 0 -69 206 -395 271 -429 24 -13 54 2 129 64
30 25 60 46 67 46 22 0 46 -62 46 -118 0 -44 -5 -59 -30 -90 -76 -93 -196
-114 -288 -49 -52 37 -89 29 -200 -43 -112 -72 -201 -112 -301 -136 -123 -29
-251 -6 -289 52 -8 13 -20 48 -25 77 -13 63 -39 103 -108 157 -70 56 -73 76
-29 166 20 41 32 74 26 74 -22 0 -426 -176 -447 -195 -6 -5 68 -146 120 -229
98 -158 160 -216 232 -216 51 0 56 4 90 62 15 27 32 50 37 53 12 8 43 -57 64
-133 17 -59 17 -66 1 -98 -12 -26 -30 -42 -70 -60 -80 -36 -138 -40 -215 -15
-38 13 -74 20 -91 16 -15 -3 -56 -32 -92 -64 -86 -76 -125 -99 -190 -112 -144
-29 -373 103 -451 260 -37 75 -37 156 0 246 14 36 23 68 20 72 -4 4 -31 -1
-60 -11 -66 -23 -319 -144 -375 -179 l-42 -27 15 -37 c36 -85 144 -261 194
-316 53 -57 113 -97 147 -97 9 0 39 18 66 40 58 46 68 48 94 19 26 -29 33
-149 11 -183 -43 -66 -196 -74 -312 -17 -54 27 -73 44 -122 109 -32 43 -89
135 -128 206 -38 71 -84 144 -102 163 l-32 35 -89 -7 c-101 -8 -146 2 -181 39
-31 33 -23 56 27 84 47 26 53 48 24 90 -29 42 -42 90 -42 155 0 116 48 173
215 256 164 81 173 82 685 91 275 5 483 13 525 20 103 18 222 63 595 220 184
78 457 191 605 250 343 137 1330 544 1455 600 141 63 204 89 213 90 4 0 18
-10 31 -23z m-5911 -219 c33 -43 120 -219 141 -285 22 -65 14 -91 -31 -109
-32 -14 -38 -13 -78 6 -52 25 -112 107 -161 219 -50 117 -47 134 41 179 53 28
60 27 88 -10z m9700 2 c77 -61 24 -130 -165 -212 -110 -48 -185 -60 -210 -32
-18 21 -25 68 -14 100 12 37 123 102 241 140 87 29 115 29 148 4z m-6927 -76
c38 -64 30 -91 -34 -130 -95 -56 -211 -98 -276 -98 -57 -1 -61 1 -83 33 -31
46 -32 108 0 120 12 5 69 28 127 51 224 91 227 91 266 24z m11501 -176 c7 -6
13 -23 13 -39 0 -27 -148 -330 -173 -357 -10 -10 -22 -6 -57 20 -70 49 -100
80 -100 101 0 25 73 162 119 224 48 64 88 84 143 71 23 -5 48 -14 55 -20z
m-12167 -53 c34 -17 47 -55 34 -93 -22 -61 -202 -151 -320 -160 -57 -4 -62 -2
-82 23 -32 40 -28 81 9 116 52 48 239 128 302 129 15 0 41 -7 57 -15z m-661
-250 c54 -27 63 -102 18 -143 -33 -29 -251 -112 -296 -112 -32 0 -44 6 -70 35
-37 42 -47 78 -33 110 12 25 23 30 94 40 30 4 60 16 79 32 59 50 153 67 208
38z m-1120 -41 c11 -15 50 -85 87 -156 76 -150 53 -143 221 -74 141 58 173 59
208 9 14 -22 25 -52 25 -71 0 -28 -7 -37 -45 -61 -69 -44 -210 -101 -264 -108
-44 -5 -50 -3 -95 36 -28 24 -57 41 -72 41 -45 0 -91 27 -121 72 -41 59 -125
239 -119 254 8 20 109 84 133 84 12 0 31 -12 42 -26z m7464 -166 c36 -43 13
-128 -45 -159 -26 -14 -219 -69 -266 -76 -88 -14 -139 94 -72 150 54 46 286
122 340 111 14 -3 33 -14 43 -26z m6155 -64 c34 -22 30 -78 -11 -145 -19 -30
-57 -92 -86 -139 -28 -46 -59 -89 -68 -94 -20 -11 -88 9 -114 35 -29 29 -24
84 15 164 41 86 105 167 148 189 36 17 78 14 116 -10z m-6819 -160 c12 -15 26
-44 33 -65 11 -40 7 -57 -24 -101 -19 -27 30 -70 141 -124 53 -25 133 -64 177
-85 153 -74 202 -116 158 -133 -59 -23 -157 8 -439 137 -216 99 -221 101 -297
101 -67 1 -80 4 -103 26 -51 48 -71 115 -41 140 8 6 43 17 78 25 35 7 110 34
168 59 58 25 110 45 117 46 6 0 21 -12 32 -26z m-661 -240 c26 -7 62 -70 62
-109 0 -40 -40 -69 -166 -119 -127 -51 -190 -64 -215 -44 -24 19 -79 109 -79
128 0 18 116 68 279 121 98 32 89 31 119 23z m7110 -178 c64 -33 60 -76 -17
-199 -51 -80 -117 -142 -168 -157 -52 -16 -113 7 -113 42 0 53 132 284 186
327 27 21 52 18 112 -13z m-6578 -41 c58 -14 115 -33 127 -41 28 -17 30 -41 5
-48 -10 -4 -117 5 -238 18 -267 29 -342 54 -277 91 43 24 248 14 383 -20z
m-1150 -65 c41 -43 56 -86 39 -107 -27 -32 -289 -143 -340 -143 -11 0 -28 4
-38 10 -22 11 -65 106 -57 126 7 17 63 46 199 99 135 53 159 55 197 15z m2582
-193 c28 -14 9 -36 -52 -58 -48 -17 -73 -36 -137 -103 -86 -89 -130 -116 -191
-116 -33 0 -50 8 -93 45 -71 60 -188 120 -434 220 -17 7 -15 9 15 16 48 10
871 6 892 -4z m-3204 -77 c55 -71 47 -84 -88 -145 -240 -107 -287 -116 -303
-58 -14 46 -3 75 44 122 77 76 242 150 294 131 11 -4 35 -26 53 -50z m7993
-192 c68 -38 64 -64 -34 -222 -74 -120 -124 -176 -159 -176 -30 0 -118 88
-118 118 0 11 23 50 51 88 29 38 62 92 75 121 13 28 33 61 45 72 30 28 90 27
140 -1z m-8633 -34 c45 -31 13 -104 -70 -160 -42 -28 -255 -124 -276 -124 -14
0 -54 99 -60 147 -4 38 -2 42 27 57 36 19 158 64 221 82 64 17 131 17 158 -2z
m-647 -254 c56 -76 25 -129 -109 -185 -122 -51 -205 -69 -240 -53 -27 13 -55
58 -67 109 -6 24 -1 28 87 69 197 91 293 109 329 60z m-643 -264 c55 -83 52
-88 -102 -161 -197 -94 -265 -106 -287 -48 -15 41 -2 78 45 121 76 70 225 144
281 140 24 -2 37 -14 63 -52z m9525 3 c41 -21 67 -52 67 -79 0 -59 -203 -300
-252 -300 -33 0 -72 31 -88 70 -11 27 -9 36 15 86 30 61 130 193 166 218 27
19 61 21 92 5z m-10173 -244 c22 -12 30 -23 30 -43 0 -59 -63 -109 -224 -177
-134 -58 -151 -58 -176 -2 -50 109 -19 150 160 208 96 32 167 36 210 14z
m-633 -280 c26 -30 29 -63 8 -91 -31 -41 -19 -76 56 -166 58 -70 64 -88 45
-127 -17 -33 -83 -91 -104 -91 -30 0 -288 304 -333 391 -19 38 -19 42 -4 59
14 15 59 31 160 54 11 3 49 3 85 1 55 -3 68 -7 87 -30z m10427 -45 c23 -26 36
-50 36 -68 0 -36 -50 -109 -141 -205 -85 -89 -103 -94 -168 -47 -71 52 -69 62
39 205 125 166 168 188 234 115z m-444 -490 c5 0 22 -12 39 -26 53 -44 38 -94
-69 -228 -135 -171 -167 -186 -235 -116 -50 51 -50 83 -2 152 89 129 207 236
245 223 8 -3 17 -5 22 -5z m-9652 -90 c70 -43 222 -218 222 -256 0 -25 -51
-73 -86 -80 -54 -10 -79 2 -154 73 -85 80 -140 152 -140 185 0 29 31 61 80 82
44 19 39 19 78 -4z m9240 -461 c17 -32 9 -106 -17 -158 -28 -53 -133 -165
-171 -181 -37 -15 -80 0 -110 38 -31 39 -25 73 25 140 51 68 167 180 199 191
28 11 58 -1 74 -30z m-8812 -48 c47 -34 254 -246 254 -259 0 -14 -57 -61 -96
-80 -47 -22 -83 -4 -178 92 -92 94 -136 151 -136 179 0 25 72 97 97 97 11 0
38 -13 59 -29z m8346 -448 c57 -56 60 -81 20 -142 -88 -131 -195 -218 -252
-206 -32 7 -80 57 -80 84 0 26 49 96 130 186 39 44 79 90 87 103 22 32 42 27
95 -25z"/>
<path d="M10184 11605 c-15 -38 136 -255 303 -435 83 -90 109 -127 119 -166 4
-16 11 -35 17 -41 15 -19 52 -15 72 7 17 19 18 27 6 113 -54 401 -65 443 -118
470 -37 20 -152 43 -275 56 -122 14 -118 14 -124 -4z"/>
<path d="M15955 11991 c-45 -16 -50 -21 -49 -47 1 -16 17 -67 37 -114 46 -107
50 -178 12 -215 -13 -14 -31 -25 -39 -25 -22 0 -36 -31 -25 -52 31 -58 210 18
346 145 l33 30 -32 56 c-62 111 -130 208 -158 224 -35 21 -61 20 -125 -2z"/>
<path d="M15553 11818 c-34 -11 -76 -33 -95 -48 l-33 -28 0 -104 0 -104 -43
-66 c-56 -86 -68 -128 -47 -168 8 -16 22 -30 31 -30 42 0 189 96 218 144 32
49 30 63 -19 115 -39 42 -45 53 -36 69 13 25 48 38 144 56 146 28 167 56 94
124 -41 37 -98 62 -137 62 -8 -1 -43 -10 -77 -22z"/>
<path d="M14262 11285 c-108 -50 -89 -115 33 -115 48 0 68 5 89 21 49 39 22
119 -41 119 -16 0 -52 -11 -81 -25z"/>
<path d="M12515 10954 c-168 -41 -324 -112 -375 -170 -36 -41 -37 -58 -8 -78
50 -35 188 -5 428 91 91 37 210 79 265 93 70 18 101 30 103 41 5 27 -25 32
-193 35 -116 3 -176 -1 -220 -12z"/>
<path d="M14115 10848 c-77 -53 -99 -118 -41 -118 46 0 116 78 116 130 0 28
-20 25 -75 -12z"/>
<path d="M13062 10815 c-59 -34 -102 -65 -102 -74 0 -4 43 -12 94 -18 57 -6
105 -17 121 -27 54 -35 88 -125 66 -173 -11 -24 -15 -25 -77 -21 -60 4 -68 7
-100 41 -34 35 -36 36 -62 23 -29 -16 -73 -60 -90 -90 -13 -26 1 -62 41 -104
48 -51 83 -65 157 -65 130 0 260 90 260 179 0 55 -105 243 -178 322 -38 39
-70 41 -130 7z"/>
<path d="M10600 9775 c0 -8 9 -37 20 -65 33 -84 28 -109 -39 -192 -61 -76 -91
-127 -91 -152 0 -27 46 -49 87 -41 56 10 122 45 161 83 34 35 34 36 30 107 -6
84 -49 189 -101 243 -32 33 -67 43 -67 17z"/>
<path d="M14453 9592 c-7 -4 -19 -24 -28 -45 -13 -32 -15 -139 -15 -838 l0
-801 -122 7 c-68 3 -159 10 -203 15 -44 5 -172 16 -285 25 -113 8 -347 27
-520 41 -173 15 -386 27 -472 28 -173 1 -193 -4 -165 -47 28 -43 101 -57 534
-102 560 -59 951 -139 1212 -248 134 -56 187 -69 202 -51 9 11 10 214 6 852
-6 841 -15 1073 -41 1137 -13 31 -19 35 -53 35 -21 0 -43 -4 -50 -8z"/>
<path d="M11223 8340 c-39 -16 -26 -30 26 -30 54 0 73 13 42 29 -23 13 -38 13
-68 1z"/>
<path d="M11028 8299 c-36 -21 -16 -79 27 -79 43 0 59 44 27 73 -21 19 -30 20
-54 6z"/>
<path d="M7911 8704 c-86 -43 -89 -56 -35 -154 50 -91 65 -136 55 -163 -5 -13
-32 -51 -61 -85 -29 -35 -48 -67 -44 -73 11 -18 105 -4 161 24 51 26 134 87
190 140 l32 30 -71 139 c-69 135 -102 178 -138 178 -10 0 -49 -16 -89 -36z"/>
<path d="M6862 8248 c-5 -7 -13 -33 -17 -58 -10 -59 -36 -110 -83 -160 -32
-33 -45 -40 -78 -40 -45 0 -117 -37 -122 -63 -7 -33 57 -19 173 38 62 30 121
55 132 55 11 0 28 -9 38 -20 40 -44 -14 -112 -175 -220 -49 -33 -90 -65 -90
-70 0 -6 28 -10 63 -10 88 0 152 34 249 132 90 90 103 122 83 198 -40 151
-132 268 -173 218z"/>
<path d="M5190 7945 c-8 -2 -49 -9 -90 -15 -171 -28 -430 -154 -430 -210 0
-29 75 -80 117 -80 18 0 86 22 151 49 64 27 189 74 277 105 164 57 255 92 290
113 16 10 18 14 7 25 -9 9 -54 13 -160 15 -81 1 -154 0 -162 -2z"/>
<path d="M5609 7768 c-35 -24 -64 -48 -66 -54 -3 -8 28 -14 90 -19 139 -10
187 -49 187 -154 0 -43 -29 -76 -90 -101 -43 -18 -61 -6 -74 50 -15 58 -37 71
-73 44 -45 -33 -93 -103 -93 -134 0 -35 46 -81 114 -115 63 -31 89 -31 152 0
51 26 214 160 214 177 0 19 -154 278 -185 313 -47 51 -92 49 -176 -7z"/>
<path d="M5610 3849 c-438 -35 -927 -119 -1309 -224 -564 -154 -1026 -385
-1118 -559 -11 -19 -17 -55 -18 -91 0 -94 44 -164 230 -366 203 -220 253 -344
210 -524 -32 -137 -184 -451 -265 -549 -22 -27 -40 -52 -40 -57 0 -20 48 -6
159 45 185 87 383 141 761 206 102 18 201 36 221 41 l37 9 5 543 c8 768 23
876 141 991 106 102 333 165 796 221 145 17 335 43 575 80 117 17 160 28 197
49 25 15 51 33 58 41 18 22 -4 52 -61 81 -113 57 -344 82 -579 63z"/>
<path d="M13815 3840 c-156 -24 -275 -88 -262 -142 4 -16 20 -32 43 -43 47
-22 445 -87 804 -130 507 -62 536 -68 668 -134 79 -40 141 -96 174 -158 48
-90 57 -208 64 -845 4 -315 10 -582 14 -593 7 -18 39 -26 296 -68 428 -71 569
-111 772 -217 50 -27 92 -44 92 -39 0 6 -47 101 -105 212 -199 381 -231 525
-154 688 39 81 79 135 222 299 154 176 171 204 171 290 -1 42 -7 78 -19 100
-28 54 -144 160 -233 213 -217 128 -730 324 -1064 406 -150 37 -520 100 -798
136 -223 29 -573 42 -685 25z"/>
<path d="M6160 3459 c-129 -39 -342 -67 -725 -94 -396 -28 -463 -36 -534 -66
-127 -54 -165 -102 -165 -214 -1 -89 22 -133 80 -155 61 -23 776 -22 854 2 30
9 109 22 175 28 216 20 420 73 473 122 22 21 23 28 17 98 -14 168 -26 263 -35
281 -14 24 -54 24 -140 -2z"/>
<path d="M13511 3451 c-26 -26 -36 -92 -36 -240 0 -121 1 -124 25 -143 32 -24
263 -81 445 -110 129 -21 174 -22 575 -23 434 0 435 0 482 23 36 18 50 32 62
63 9 22 16 45 16 52 0 66 -72 162 -149 202 -81 41 -222 62 -566 85 -257 17
-582 57 -695 84 -126 31 -135 31 -159 7z"/>
<path d="M9440 3254 c-83 -4 -411 -23 -735 -45 -88 -5 -209 -17 -270 -24 -60
-8 -184 -22 -275 -30 -91 -9 -235 -27 -320 -40 -85 -14 -184 -27 -220 -30
-123 -11 -445 -65 -690 -115 -258 -53 -653 -131 -880 -175 -163 -30 -439 -70
-610 -86 -87 -8 -203 -9 -380 -4 -294 9 -339 9 -346 3 -2 -3 -7 -389 -11 -859
-6 -916 -4 -966 42 -1045 27 -45 78 -84 145 -111 37 -14 75 -17 210 -17 179 1
258 13 655 104 307 70 482 107 1045 219 754 149 857 168 1005 186 72 9 171 22
220 30 50 8 160 21 245 30 85 8 211 22 280 30 120 14 577 47 820 60 63 3 306
6 540 6 485 1 1020 -25 1380 -66 118 -13 274 -31 345 -39 437 -50 1510 -244
2125 -386 561 -129 957 -187 1082 -160 64 13 122 47 180 107 71 72 79 101 90
308 11 190 2 1435 -10 1515 -6 41 -10 46 -46 58 -21 7 -134 17 -250 22 -492
24 -610 31 -776 50 -96 11 -231 31 -300 45 -69 13 -147 29 -175 33 -27 5 -106
21 -175 35 -317 65 -411 83 -750 141 -85 14 -204 35 -265 46 -60 10 -150 24
-200 30 -49 6 -162 21 -250 35 -88 13 -209 29 -270 35 -60 6 -182 20 -270 30
-88 11 -230 24 -315 30 -85 6 -254 17 -375 26 -207 14 -1038 26 -1245 18z
m-156 -338 c34 -38 47 -90 53 -211 5 -101 4 -111 -15 -128 -18 -16 -23 -17
-53 -4 -19 8 -72 46 -118 86 -123 104 -191 130 -265 101 -34 -13 -104 -77
-122 -113 -15 -27 -14 -31 7 -53 33 -35 165 -99 268 -130 47 -15 111 -39 141
-54 123 -62 236 -170 275 -263 24 -57 19 -139 -11 -203 -31 -66 -177 -223
-243 -262 -44 -26 -53 -27 -209 -30 -90 -2 -171 -1 -180 3 -9 3 -48 7 -87 9
-39 1 -84 9 -100 17 -29 14 -30 17 -47 139 -27 206 -22 260 29 260 8 0 63 -47
122 -104 126 -122 169 -147 267 -154 58 -4 77 -1 111 17 107 54 119 166 26
237 -20 15 -116 62 -215 105 -98 43 -201 92 -228 109 -101 65 -180 185 -180
273 0 77 105 230 194 282 54 32 103 41 276 55 80 6 168 17 195 24 71 20 83 19
109 -8z m786 14 c36 0 71 -4 77 -8 10 -7 10 -57 -2 -248 -8 -131 -15 -243 -15
-249 0 -17 259 247 305 310 24 33 53 81 66 108 27 55 20 54 191 33 148 -19
237 -35 261 -48 18 -9 18 -11 -3 -33 -12 -12 -72 -48 -133 -80 -62 -32 -148
-81 -192 -110 -82 -54 -185 -153 -185 -177 0 -53 315 -501 400 -569 l40 -32
-26 -46 c-53 -96 -106 -107 -323 -67 -192 35 -213 49 -151 94 21 16 30 31 30
50 0 56 -156 286 -216 318 -28 15 -35 16 -49 4 -43 -35 -81 -170 -69 -240 14
-75 46 -110 101 -110 35 0 73 -25 73 -49 0 -27 -44 -42 -153 -53 -115 -12
-325 2 -398 27 -56 19 -91 54 -91 91 0 34 20 50 77 59 53 7 78 35 100 109 24
78 37 283 33 503 -4 228 -11 255 -87 308 -56 39 -70 59 -55 83 16 25 64 31
204 26 69 -2 154 -4 190 -4z m1542 -100 c256 -38 439 -102 488 -170 31 -43 43
-112 38 -217 -3 -81 -9 -107 -30 -149 -33 -63 -96 -121 -142 -130 -50 -9 -47
-32 15 -135 91 -149 110 -181 155 -271 47 -93 50 -111 33 -171 -12 -44 -39
-59 -107 -59 -53 0 -57 4 -184 155 -119 142 -148 187 -165 251 -7 26 -23 67
-37 90 -28 49 -118 136 -140 136 -9 0 -19 -15 -25 -37 -21 -81 -42 -231 -39
-283 l3 -55 58 -11 c62 -13 82 -24 90 -54 14 -53 -55 -82 -198 -81 -162 0
-339 57 -409 132 -37 39 -38 43 -20 50 10 4 32 8 47 8 46 1 95 27 111 59 14
27 103 493 126 665 13 94 3 126 -60 193 -54 58 -63 89 -27 104 32 15 258 4
419 -20z m-3338 -52 c9 -12 16 -30 16 -40 0 -21 -37 -48 -66 -48 -42 0 -67
-32 -72 -92 -5 -70 7 -161 70 -517 27 -157 52 -327 55 -377 5 -88 5 -92 -17
-104 -33 -18 -131 -7 -183 20 -72 37 -141 97 -386 329 -394 375 -433 399 -371
232 16 -44 45 -163 65 -263 56 -288 56 -288 155 -288 38 0 71 -5 78 -12 15
-15 16 -82 1 -110 -17 -32 -62 -45 -320 -88 -319 -53 -575 -105 -673 -138 -92
-30 -110 -25 -114 34 -3 35 2 44 48 89 27 27 50 57 50 66 0 25 -87 117 -131
139 -50 26 -128 26 -178 0 -21 -10 -59 -42 -84 -70 -45 -50 -100 -146 -92
-160 2 -4 30 -10 61 -14 31 -3 65 -11 75 -17 26 -13 51 -65 47 -97 -4 -36 -39
-52 -113 -52 -127 -1 -205 -17 -259 -55 -28 -19 -61 -35 -72 -35 -36 0 -74 38
-74 72 0 32 24 68 45 68 40 0 111 145 160 328 19 70 57 256 85 415 55 312 74
379 124 432 58 62 94 46 198 -89 39 -50 84 -118 100 -151 35 -68 228 -365 314
-483 120 -163 156 -190 257 -191 57 -1 109 19 131 50 31 45 21 177 -39 507
-30 165 -59 311 -64 324 -14 38 -33 47 -105 50 -52 2 -72 7 -80 20 -16 27 4
69 45 90 48 25 216 67 299 74 59 6 74 3 121 -18 69 -32 112 -70 402 -350 131
-127 240 -228 243 -225 3 3 -2 58 -11 124 -36 263 -76 397 -126 424 -13 6 -38
9 -61 5 -32 -5 -42 -2 -63 18 -28 28 -33 77 -11 95 28 23 372 99 453 100 43 1
55 -3 67 -21z m4351 -107 c12 -20 127 -54 294 -87 96 -19 181 -40 188 -46 18
-15 35 -83 27 -113 -10 -42 -37 -49 -93 -24 -28 11 -55 18 -61 14 -18 -11 -30
-51 -65 -225 -18 -91 -47 -204 -63 -252 -58 -168 -90 -386 -60 -416 7 -7 22
-12 34 -12 54 0 89 -69 56 -110 l-20 -24 -113 18 c-430 67 -459 73 -459 101 0
21 67 62 118 74 24 5 46 11 48 14 3 3 10 35 15 72 11 80 40 195 79 320 55 173
70 248 70 354 0 121 -11 153 -74 217 -26 25 -46 53 -46 61 0 27 56 73 89 73
16 0 32 -4 36 -9z m840 -231 c154 -34 753 -182 765 -190 7 -4 14 -52 17 -123
6 -111 5 -118 -21 -171 -29 -59 -67 -96 -97 -96 -26 0 -46 36 -54 100 -9 76
-34 128 -83 172 -107 96 -146 56 -212 -213 -67 -276 -100 -391 -137 -468 -23
-50 -33 -81 -28 -98 6 -26 59 -63 90 -63 38 0 65 -28 65 -68 0 -48 -24 -82
-57 -82 -15 0 -54 11 -87 24 -34 14 -139 41 -234 60 -180 37 -221 52 -246 87
-31 45 6 79 86 79 45 0 63 5 78 20 27 27 32 40 97 275 30 110 73 263 94 339
45 159 51 239 20 256 -11 5 -43 10 -72 10 -70 0 -118 -29 -203 -124 -54 -61
-73 -76 -96 -76 -18 0 -35 8 -44 22 -28 39 -19 79 35 169 28 46 62 105 75 132
l24 47 68 0 c37 0 108 -9 157 -20z m-7848 -185 c15 -101 16 -240 3 -266 -21
-39 -58 -24 -145 59 -90 88 -141 112 -232 112 -100 0 -173 -55 -173 -129 0
-70 53 -114 152 -126 39 -5 73 -18 108 -40 29 -18 92 -44 148 -59 53 -15 112
-37 131 -48 68 -42 163 -229 164 -323 1 -106 -114 -269 -226 -321 -84 -38
-146 -45 -323 -38 l-162 7 -16 -26 c-18 -26 -48 -39 -72 -30 -57 22 -132 364
-91 417 14 19 15 19 58 -7 24 -14 75 -53 112 -85 121 -106 230 -149 312 -122
48 16 114 75 132 118 28 66 -30 128 -175 188 -274 113 -340 151 -421 240 -114
125 -104 275 28 410 86 88 144 106 441 134 256 25 233 31 247 -65z m8926 -74
c117 -27 241 -55 277 -61 77 -14 90 -23 90 -60 0 -30 -39 -70 -69 -70 -48 0
-93 -23 -122 -62 -35 -50 -49 -94 -94 -306 -18 -88 -47 -191 -63 -228 -54
-125 -79 -225 -67 -263 4 -14 30 -32 70 -50 66 -30 85 -52 85 -96 0 -46 -35
-52 -158 -26 -194 41 -424 100 -448 116 -64 42 -43 92 45 106 77 12 95 27 116
101 9 35 28 83 41 108 25 48 48 133 88 318 14 61 41 148 60 191 60 131 48 175
-56 220 -47 20 -48 21 -48 66 0 39 3 45 21 45 11 0 116 -22 232 -49z"/>
<path d="M11662 2679 c-59 -23 -102 -258 -65 -355 7 -19 123 -19 168 0 41 18
50 43 49 143 -1 84 -23 149 -62 185 -33 31 -60 39 -90 27z"/>
<path d="M6236 1958 c-3 -13 -7 -43 -11 -68 -3 -25 -13 -67 -21 -93 -9 -27
-13 -51 -10 -55 9 -9 112 14 155 35 20 10 38 26 39 36 4 21 -73 143 -99 157
-29 16 -48 11 -53 -12z"/>
<path d="M9867 1150 c-21 -4 -46 -14 -55 -23 -15 -15 -14 -18 7 -41 13 -14 52
-37 87 -52 75 -32 80 -49 36 -110 -40 -55 -57 -67 -84 -59 -42 13 -182 110
-273 189 l-90 78 -225 -6 c-264 -7 -422 -24 -445 -47 -19 -19 -10 -46 18 -55
44 -13 205 -121 537 -361 69 -49 181 -129 250 -178 343 -242 350 -247 375
-241 31 8 206 124 400 265 262 191 301 219 505 359 107 73 212 142 233 153 45
24 50 54 10 71 -18 8 -127 13 -316 16 l-287 4 -63 -30 c-34 -16 -95 -57 -136
-91 -75 -63 -120 -91 -143 -91 -29 1 -108 90 -108 123 0 14 19 39 52 69 l53
46 -28 11 c-31 12 -250 13 -310 1z"/>
</g>
</svg>
